<svg xmlns="http://www.w3.org/2000/svg" xmlns:xlink="http://www.w3.org/1999/xlink" width="200" zoomAndPan="magnify" viewBox="0 0 150 149.999998" height="200" preserveAspectRatio="xMidYMid meet" version="1.0"><defs><g/><clipPath id="7960565227"><path d="M 21.980469 4 L 127.730469 4 L 127.730469 146.542969 L 21.980469 146.542969 Z M 21.980469 4 " clip-rule="nonzero"/></clipPath><clipPath id="04f9c017e2"><path d="M 1.261719 31 L 106.730469 31 L 106.730469 142.542969 L 1.261719 142.542969 Z M 1.261719 31 " clip-rule="nonzero"/></clipPath><clipPath id="4d4b3bfcbe"><path d="M 5 0.078125 L 91 0.078125 L 91 125 L 5 125 Z M 5 0.078125 " clip-rule="nonzero"/></clipPath><clipPath id="db5b96c7ab"><rect x="0" width="107" y="0" height="143"/></clipPath><clipPath id="d986b869d8"><path d="M 0.078125 4 L 4 4 L 4 8 L 0.078125 8 Z M 0.078125 4 " clip-rule="nonzero"/></clipPath><clipPath id="8d6844975e"><rect x="0" width="18" y="0" height="10"/></clipPath></defs><g clip-path="url(#7960565227)"><g transform="matrix(1, 0, 0, 1, 21, 4)"><g clip-path="url(#db5b96c7ab)"><g clip-path="url(#04f9c017e2)"><path fill="#fff6ef" d="M 1.5625 142.8125 C 9.632812 142.8125 17.472656 139.945312 23.617188 134.796875 C 39.292969 121.578125 58.890625 118.476562 81.765625 125.613281 C 87.792969 127.484375 94.109375 126.433594 99.140625 122.6875 C 104.113281 119.003906 106.980469 113.386719 106.980469 107.183594 L 106.980469 35.460938 C 106.980469 33.238281 105.167969 31.425781 102.945312 31.425781 C 100.722656 31.425781 98.90625 33.238281 98.90625 35.460938 L 98.90625 107.128906 C 98.90625 110.695312 97.269531 113.972656 94.34375 116.136719 C 91.417969 118.300781 87.675781 118.945312 84.164062 117.832031 C 70.183594 113.503906 56.960938 112.625 45.027344 115.257812 C 35.257812 117.421875 26.308594 121.871094 18.410156 128.539062 C 13.730469 132.515625 7.761719 134.679688 1.5625 134.679688 C -4.582031 134.679688 -10.605469 132.515625 -15.289062 128.539062 C -23.183594 121.871094 -32.195312 117.363281 -41.90625 115.257812 C -53.898438 112.625 -67.0625 113.445312 -81.042969 117.832031 C -84.554688 118.945312 -88.296875 118.300781 -91.222656 116.136719 C -94.089844 114.03125 -95.785156 110.753906 -95.785156 107.128906 L -95.785156 35.460938 C -95.785156 33.238281 -97.597656 31.425781 -99.824219 31.425781 C -102.046875 31.425781 -103.859375 33.238281 -103.859375 35.460938 L -103.859375 107.128906 C -103.859375 113.328125 -100.992188 119.003906 -96.019531 122.628906 C -90.988281 126.316406 -84.613281 127.425781 -78.644531 125.554688 C -55.769531 118.417969 -36.171875 121.519531 -20.496094 134.738281 C -14.351562 139.945312 -6.511719 142.8125 1.5625 142.8125 Z M 1.5625 142.8125 " fill-opacity="1" fill-rule="nonzero"/></g><g clip-path="url(#4d4b3bfcbe)"><path fill="#fff6ef" d="M 5.890625 21.714844 C 9.632812 17.796875 14.78125 13.289062 21.21875 9.429688 C 35.140625 1.0625 58.191406 -5.957031 88.496094 8.550781 C 89.898438 9.195312 90.777344 10.65625 90.777344 12.179688 L 90.777344 106.132812 C 90.777344 106.953125 90.542969 107.828125 90.074219 108.53125 C 88.84375 110.226562 86.738281 110.695312 84.984375 109.875 C 45.261719 90.980469 19.929688 111.925781 9.867188 123.332031 C 8.464844 124.910156 5.890625 123.917969 5.890625 121.8125 Z M 5.890625 21.714844 " fill-opacity="1" fill-rule="nonzero"/></g></g></g></g><g transform="matrix(1, 0, 0, 1, 58, 78)"><g clip-path="url(#8d6844975e)"><g clip-path="url(#d986b869d8)"><g fill="#fff6ef" fill-opacity="1"><g transform="translate(0.212464, 7.609257)"><g><path d="M 3.125 -1.625 C 3.125 -1.9375 3.015625 -2.207031 2.796875 -2.4375 C 2.578125 -2.675781 2.304688 -2.796875 1.984375 -2.796875 C 1.660156 -2.796875 1.390625 -2.675781 1.171875 -2.4375 C 0.953125 -2.207031 0.84375 -1.9375 0.84375 -1.625 C 0.84375 -1.300781 0.953125 -1.023438 1.171875 -0.796875 C 1.390625 -0.554688 1.660156 -0.4375 1.984375 -0.4375 C 2.304688 -0.4375 2.578125 -0.554688 2.796875 -0.796875 C 3.015625 -1.023438 3.125 -1.300781 3.125 -1.625 Z M 3.640625 0 L 3.125 0 L 3.125 -0.546875 C 3.09375 -0.515625 3.066406 -0.476562 3.046875 -0.4375 C 2.734375 -0.09375 2.351562 0.078125 1.90625 0.078125 C 1.457031 0.078125 1.082031 -0.09375 0.78125 -0.4375 C 0.476562 -0.769531 0.328125 -1.164062 0.328125 -1.625 C 0.328125 -2.070312 0.476562 -2.460938 0.78125 -2.796875 C 1.082031 -3.140625 1.457031 -3.3125 1.90625 -3.3125 C 2.351562 -3.3125 2.734375 -3.140625 3.046875 -2.796875 C 3.066406 -2.765625 3.09375 -2.726562 3.125 -2.6875 L 3.125 -3.234375 L 3.640625 -3.234375 Z M 3.640625 0 "/></g></g></g></g><g fill="#fff6ef" fill-opacity="1"><g transform="translate(4.410716, 7.609257)"><g><path d="M 3.125 -1.625 C 3.125 -1.9375 3.015625 -2.207031 2.796875 -2.4375 C 2.578125 -2.675781 2.304688 -2.796875 1.984375 -2.796875 C 1.660156 -2.796875 1.390625 -2.675781 1.171875 -2.4375 C 0.953125 -2.207031 0.84375 -1.9375 0.84375 -1.625 C 0.84375 -1.300781 0.953125 -1.023438 1.171875 -0.796875 C 1.390625 -0.554688 1.660156 -0.4375 1.984375 -0.4375 C 2.304688 -0.4375 2.578125 -0.554688 2.796875 -0.796875 C 3.015625 -1.023438 3.125 -1.300781 3.125 -1.625 Z M 3.640625 0 L 3.125 0 L 3.125 -0.546875 C 3.09375 -0.515625 3.066406 -0.476562 3.046875 -0.4375 C 2.734375 -0.09375 2.351562 0.078125 1.90625 0.078125 C 1.457031 0.078125 1.082031 -0.09375 0.78125 -0.4375 C 0.476562 -0.769531 0.328125 -1.164062 0.328125 -1.625 C 0.328125 -2.070312 0.476562 -2.460938 0.78125 -2.796875 C 1.082031 -3.140625 1.457031 -3.3125 1.90625 -3.3125 C 2.351562 -3.3125 2.734375 -3.140625 3.046875 -2.796875 C 3.066406 -2.765625 3.09375 -2.726562 3.125 -2.6875 L 3.125 -3.234375 L 3.640625 -3.234375 Z M 3.640625 0 "/></g></g></g><g fill="#fff6ef" fill-opacity="1"><g transform="translate(8.606674, 7.609257)"><g><path d="M 3.125 -1.625 C 3.125 -1.9375 3.015625 -2.207031 2.796875 -2.4375 C 2.578125 -2.675781 2.304688 -2.796875 1.984375 -2.796875 C 1.660156 -2.796875 1.390625 -2.675781 1.171875 -2.4375 C 0.953125 -2.207031 0.84375 -1.9375 0.84375 -1.625 C 0.84375 -1.300781 0.953125 -1.023438 1.171875 -0.796875 C 1.390625 -0.554688 1.660156 -0.4375 1.984375 -0.4375 C 2.304688 -0.4375 2.578125 -0.554688 2.796875 -0.796875 C 3.015625 -1.023438 3.125 -1.300781 3.125 -1.625 Z M 3.640625 0 L 3.125 0 L 3.125 -0.546875 C 3.09375 -0.515625 3.066406 -0.476562 3.046875 -0.4375 C 2.734375 -0.09375 2.351562 0.078125 1.90625 0.078125 C 1.457031 0.078125 1.082031 -0.09375 0.78125 -0.4375 C 0.476562 -0.769531 0.328125 -1.164062 0.328125 -1.625 C 0.328125 -2.070312 0.476562 -2.460938 0.78125 -2.796875 C 1.082031 -3.140625 1.457031 -3.3125 1.90625 -3.3125 C 2.351562 -3.3125 2.734375 -3.140625 3.046875 -2.796875 C 3.066406 -2.765625 3.09375 -2.726562 3.125 -2.6875 L 3.125 -3.234375 L 3.640625 -3.234375 Z M 3.640625 0 "/></g></g></g><g fill="#fff6ef" fill-opacity="1"><g transform="translate(12.802631, 7.609257)"><g><path d="M 3.125 -1.625 C 3.125 -1.9375 3.015625 -2.207031 2.796875 -2.4375 C 2.578125 -2.675781 2.304688 -2.796875 1.984375 -2.796875 C 1.660156 -2.796875 1.390625 -2.675781 1.171875 -2.4375 C 0.953125 -2.207031 0.84375 -1.9375 0.84375 -1.625 C 0.84375 -1.300781 0.953125 -1.023438 1.171875 -0.796875 C 1.390625 -0.554688 1.660156 -0.4375 1.984375 -0.4375 C 2.304688 -0.4375 2.578125 -0.554688 2.796875 -0.796875 C 3.015625 -1.023438 3.125 -1.300781 3.125 -1.625 Z M 3.640625 0 L 3.125 0 L 3.125 -0.546875 C 3.09375 -0.515625 3.066406 -0.476562 3.046875 -0.4375 C 2.734375 -0.09375 2.351562 0.078125 1.90625 0.078125 C 1.457031 0.078125 1.082031 -0.09375 0.78125 -0.4375 C 0.476562 -0.769531 0.328125 -1.164062 0.328125 -1.625 C 0.328125 -2.070312 0.476562 -2.460938 0.78125 -2.796875 C 1.082031 -3.140625 1.457031 -3.3125 1.90625 -3.3125 C 2.351562 -3.3125 2.734375 -3.140625 3.046875 -2.796875 C 3.066406 -2.765625 3.09375 -2.726562 3.125 -2.6875 L 3.125 -3.234375 L 3.640625 -3.234375 Z M 3.640625 0 "/></g></g></g></g></g></svg>