<svg xmlns="http://www.w3.org/2000/svg" xmlns:xlink="http://www.w3.org/1999/xlink" width="200" zoomAndPan="magnify" viewBox="0 0 150 149.999998" height="200" preserveAspectRatio="xMidYMid meet" version="1.0"><defs><g/><clipPath id="d06d3c6f50"><path d="M 22 35 L 127.730469 35 L 127.730469 146.542969 L 22 146.542969 Z M 22 35 " clip-rule="nonzero"/></clipPath><clipPath id="6be3c1af91"><path d="M 0.078125 4 L 4 4 L 4 8 L 0.078125 8 Z M 0.078125 4 " clip-rule="nonzero"/></clipPath><clipPath id="3677da3362"><rect x="0" width="18" y="0" height="10"/></clipPath></defs><g clip-path="url(#d06d3c6f50)"><path fill="#fff6ef" d="M 127.433594 146.8125 C 119.359375 146.8125 111.519531 143.945312 105.375 138.796875 C 89.699219 125.578125 70.101562 122.476562 47.226562 129.613281 C 41.199219 131.484375 34.882812 130.433594 29.851562 126.6875 C 24.878906 123.003906 22.011719 117.386719 22.011719 111.183594 L 22.011719 39.460938 C 22.011719 37.238281 23.824219 35.425781 26.046875 35.425781 C 28.273438 35.425781 30.085938 37.238281 30.085938 39.460938 L 30.085938 111.128906 C 30.085938 114.695312 31.722656 117.972656 34.648438 120.136719 C 37.574219 122.300781 41.316406 122.945312 44.828125 121.832031 C 58.808594 117.503906 72.03125 116.625 83.964844 119.257812 C 93.734375 121.421875 102.6875 125.871094 110.582031 132.539062 C 115.265625 136.515625 121.230469 138.679688 127.433594 138.679688 C 133.574219 138.679688 139.601562 136.515625 144.28125 132.539062 C 152.179688 125.871094 161.1875 121.363281 170.898438 119.257812 C 182.890625 116.625 196.054688 117.445312 210.035156 121.832031 C 213.546875 122.945312 217.289062 122.300781 220.214844 120.136719 C 223.082031 118.03125 224.777344 114.753906 224.777344 111.128906 L 224.777344 39.460938 C 224.777344 37.238281 226.59375 35.425781 228.816406 35.425781 C 231.039062 35.425781 232.851562 37.238281 232.851562 39.460938 L 232.851562 111.128906 C 232.851562 117.328125 229.984375 123.003906 225.011719 126.628906 C 219.980469 130.316406 213.605469 131.425781 207.636719 129.554688 C 184.761719 122.417969 165.164062 125.519531 149.488281 138.738281 C 143.34375 143.945312 135.503906 146.8125 127.433594 146.8125 Z M 127.433594 146.8125 " fill-opacity="1" fill-rule="nonzero"/></g><path fill="#fff6ef" d="M 123.101562 25.714844 C 119.359375 21.796875 114.210938 17.289062 107.777344 13.429688 C 93.851562 5.0625 70.800781 -1.957031 40.5 12.550781 C 39.09375 13.195312 38.21875 14.65625 38.21875 16.179688 L 38.21875 110.132812 C 38.21875 110.953125 38.449219 111.828125 38.917969 112.53125 C 40.148438 114.226562 42.253906 114.695312 44.007812 113.875 C 83.730469 94.980469 109.0625 115.925781 119.125 127.332031 C 120.527344 128.910156 123.101562 127.917969 123.101562 125.8125 Z M 123.101562 25.714844 " fill-opacity="1" fill-rule="nonzero"/><g transform="matrix(1, 0, 0, 1, 58, 78)"><g clip-path="url(#3677da3362)"><g clip-path="url(#6be3c1af91)"><g fill="#fff6ef" fill-opacity="1"><g transform="translate(0.212464, 7.609257)"><g><path d="M 3.125 -1.625 C 3.125 -1.9375 3.015625 -2.207031 2.796875 -2.4375 C 2.578125 -2.675781 2.304688 -2.796875 1.984375 -2.796875 C 1.660156 -2.796875 1.390625 -2.675781 1.171875 -2.4375 C 0.953125 -2.207031 0.84375 -1.9375 0.84375 -1.625 C 0.84375 -1.300781 0.953125 -1.023438 1.171875 -0.796875 C 1.390625 -0.554688 1.660156 -0.4375 1.984375 -0.4375 C 2.304688 -0.4375 2.578125 -0.554688 2.796875 -0.796875 C 3.015625 -1.023438 3.125 -1.300781 3.125 -1.625 Z M 3.640625 0 L 3.125 0 L 3.125 -0.546875 C 3.09375 -0.515625 3.066406 -0.476562 3.046875 -0.4375 C 2.734375 -0.09375 2.351562 0.078125 1.90625 0.078125 C 1.457031 0.078125 1.082031 -0.09375 0.78125 -0.4375 C 0.476562 -0.769531 0.328125 -1.164062 0.328125 -1.625 C 0.328125 -2.070312 0.476562 -2.460938 0.78125 -2.796875 C 1.082031 -3.140625 1.457031 -3.3125 1.90625 -3.3125 C 2.351562 -3.3125 2.734375 -3.140625 3.046875 -2.796875 C 3.066406 -2.765625 3.09375 -2.726562 3.125 -2.6875 L 3.125 -3.234375 L 3.640625 -3.234375 Z M 3.640625 0 "/></g></g></g></g><g fill="#fff6ef" fill-opacity="1"><g transform="translate(4.410716, 7.609257)"><g><path d="M 3.125 -1.625 C 3.125 -1.9375 3.015625 -2.207031 2.796875 -2.4375 C 2.578125 -2.675781 2.304688 -2.796875 1.984375 -2.796875 C 1.660156 -2.796875 1.390625 -2.675781 1.171875 -2.4375 C 0.953125 -2.207031 0.84375 -1.9375 0.84375 -1.625 C 0.84375 -1.300781 0.953125 -1.023438 1.171875 -0.796875 C 1.390625 -0.554688 1.660156 -0.4375 1.984375 -0.4375 C 2.304688 -0.4375 2.578125 -0.554688 2.796875 -0.796875 C 3.015625 -1.023438 3.125 -1.300781 3.125 -1.625 Z M 3.640625 0 L 3.125 0 L 3.125 -0.546875 C 3.09375 -0.515625 3.066406 -0.476562 3.046875 -0.4375 C 2.734375 -0.09375 2.351562 0.078125 1.90625 0.078125 C 1.457031 0.078125 1.082031 -0.09375 0.78125 -0.4375 C 0.476562 -0.769531 0.328125 -1.164062 0.328125 -1.625 C 0.328125 -2.070312 0.476562 -2.460938 0.78125 -2.796875 C 1.082031 -3.140625 1.457031 -3.3125 1.90625 -3.3125 C 2.351562 -3.3125 2.734375 -3.140625 3.046875 -2.796875 C 3.066406 -2.765625 3.09375 -2.726562 3.125 -2.6875 L 3.125 -3.234375 L 3.640625 -3.234375 Z M 3.640625 0 "/></g></g></g><g fill="#fff6ef" fill-opacity="1"><g transform="translate(8.606674, 7.609257)"><g><path d="M 3.125 -1.625 C 3.125 -1.9375 3.015625 -2.207031 2.796875 -2.4375 C 2.578125 -2.675781 2.304688 -2.796875 1.984375 -2.796875 C 1.660156 -2.796875 1.390625 -2.675781 1.171875 -2.4375 C 0.953125 -2.207031 0.84375 -1.9375 0.84375 -1.625 C 0.84375 -1.300781 0.953125 -1.023438 1.171875 -0.796875 C 1.390625 -0.554688 1.660156 -0.4375 1.984375 -0.4375 C 2.304688 -0.4375 2.578125 -0.554688 2.796875 -0.796875 C 3.015625 -1.023438 3.125 -1.300781 3.125 -1.625 Z M 3.640625 0 L 3.125 0 L 3.125 -0.546875 C 3.09375 -0.515625 3.066406 -0.476562 3.046875 -0.4375 C 2.734375 -0.09375 2.351562 0.078125 1.90625 0.078125 C 1.457031 0.078125 1.082031 -0.09375 0.78125 -0.4375 C 0.476562 -0.769531 0.328125 -1.164062 0.328125 -1.625 C 0.328125 -2.070312 0.476562 -2.460938 0.78125 -2.796875 C 1.082031 -3.140625 1.457031 -3.3125 1.90625 -3.3125 C 2.351562 -3.3125 2.734375 -3.140625 3.046875 -2.796875 C 3.066406 -2.765625 3.09375 -2.726562 3.125 -2.6875 L 3.125 -3.234375 L 3.640625 -3.234375 Z M 3.640625 0 "/></g></g></g><g fill="#fff6ef" fill-opacity="1"><g transform="translate(12.802631, 7.609257)"><g><path d="M 3.125 -1.625 C 3.125 -1.9375 3.015625 -2.207031 2.796875 -2.4375 C 2.578125 -2.675781 2.304688 -2.796875 1.984375 -2.796875 C 1.660156 -2.796875 1.390625 -2.675781 1.171875 -2.4375 C 0.953125 -2.207031 0.84375 -1.9375 0.84375 -1.625 C 0.84375 -1.300781 0.953125 -1.023438 1.171875 -0.796875 C 1.390625 -0.554688 1.660156 -0.4375 1.984375 -0.4375 C 2.304688 -0.4375 2.578125 -0.554688 2.796875 -0.796875 C 3.015625 -1.023438 3.125 -1.300781 3.125 -1.625 Z M 3.640625 0 L 3.125 0 L 3.125 -0.546875 C 3.09375 -0.515625 3.066406 -0.476562 3.046875 -0.4375 C 2.734375 -0.09375 2.351562 0.078125 1.90625 0.078125 C 1.457031 0.078125 1.082031 -0.09375 0.78125 -0.4375 C 0.476562 -0.769531 0.328125 -1.164062 0.328125 -1.625 C 0.328125 -2.070312 0.476562 -2.460938 0.78125 -2.796875 C 1.082031 -3.140625 1.457031 -3.3125 1.90625 -3.3125 C 2.351562 -3.3125 2.734375 -3.140625 3.046875 -2.796875 C 3.066406 -2.765625 3.09375 -2.726562 3.125 -2.6875 L 3.125 -3.234375 L 3.640625 -3.234375 Z M 3.640625 0 "/></g></g></g></g></g></svg>